<?xml version="1.0" encoding="UTF-8" standalone="no"?>
<svg width="32" height="32" viewBox="0 0 32 32" fill="none" xmlns="http://www.w3.org/2000/svg">
  <path d="M11.3 27.8c-1.4-3 0.1-6.1 2.8-5.4 1.9 0.5 1.5 2.6-1 5-1 0.9-1.4 1-1.7 0.4z" fill="#E5E8EB"/>
  <path d="M19 22.6c-0.5-0.4-1-0.9-1.2-1.1-0.3-0.4-0.5-0.4-1 0.1-0.4 0.5-0.6 0.5-1.7 0-0.5-0.2-1.1-0.4-1.4-0.5-1.5-0.5-1.7-0.7-1.8-1.7-0.1-0.9 0-0.8-1.8-0.5-3.4 0.7-3.4 0.7-2.5-2.4 1-3.2 0.9-3.1 3.4-3.7 1.7-0.4 1.7-0.4 1.9-1.5 0.2-1.1 0.6-2.8 0.9-3.4 0.3-0.8 0.9-2.1 1.1-2.4 3.1-5 6.9-6.9 8.4-4.2 1.6 2.9 0.6 8.5-2.1 12.6-0.7 1.1-0.7 1 0.3 2.4 1.4 1.8 1.4 2 0.6 4-1.3 3.3-1.5 3.5-3.1 2.1z" fill="#1F7ACC"/>
</svg>
