<?xml version="1.0" encoding="UTF-8" standalone="no"?>
<!-- Created with Inkscape (http://www.inkscape.org/) -->

<svg
   width="210mm"
   height="297mm"
   viewBox="0 0 210 297"
   version="1.1"
   id="svg1"
   xml:space="preserve"
   inkscape:export-filename="imengine-icon.svg"
   inkscape:export-xdpi="96"
   inkscape:export-ydpi="96"
   inkscape:version="1.4.2 (ebf0e940, 2025-05-08)"
   sodipodi:docname="drawing.svg"
   xmlns:inkscape="http://www.inkscape.org/namespaces/inkscape"
   xmlns:sodipodi="http://sodipodi.sourceforge.net/DTD/sodipodi-0.dtd"
   xmlns:xlink="http://www.w3.org/1999/xlink"
   xmlns="http://www.w3.org/2000/svg"
   xmlns:svg="http://www.w3.org/2000/svg"><sodipodi:namedview
     id="namedview1"
     pagecolor="#ffffff"
     bordercolor="#000000"
     borderopacity="0.25"
     inkscape:showpageshadow="2"
     inkscape:pageopacity="0.0"
     inkscape:pagecheckerboard="0"
     inkscape:deskcolor="#d1d1d1"
     inkscape:document-units="mm"
     inkscape:zoom="0.46111749"
     inkscape:cx="318.79077"
     inkscape:cy="675.53283"
     inkscape:window-width="1088"
     inkscape:window-height="606"
     inkscape:window-x="0"
     inkscape:window-y="38"
     inkscape:window-maximized="0"
     inkscape:current-layer="layer1" /><defs
     id="defs1"><color-profile
       name="SMPTE-RP-431-2-2007-DCI-P3"
       xlink:href="file:///System/Library/ColorSync/Profiles/DCI(P3)%20RGB.icc"
       id="color-profile2" /></defs><g
     inkscape:label="Layer 1"
     inkscape:groupmode="layer"
     id="layer1"><g
       inkscape:label="Image"
       id="g1"
       transform="matrix(0.54205394,0,0,0.54363012,27.672912,-40.215697)"><path
         d="m 100.61486,517.77395 c -13.553114,-28.03923 1.29782,-56.97151 25.75712,-50.17949 18.1646,5.04407 14.20371,23.98412 -9.78017,46.76648 -9.31148,8.84499 -12.97323,9.62722 -15.97695,3.41301 z"
         style="fill:#e5e8eb;fill-opacity:0.992157"
         id="path1-7" /><path
         d="m 173.3741,470.67341 c -4.6038,-4.05017 -9.46148,-8.55017 -10.79486,-10 -3.21626,-3.49718 -5.01464,-3.32599 -9.07568,0.86394 -4.14337,4.27487 -5.47014,4.31065 -16.0961,0.43407 -4.62214,-1.68626 -10.33718,-3.73616 -12.70008,-4.55534 -14.37934,-4.98504 -16.3235,-6.81812 -17.12525,-16.14691 -0.68718,-7.9956 -0.32062,-7.90009 -16.578558,-4.31984 -31.35617,6.90513 -32.14247,6.14278 -23.11629,-22.41198 9.59199,-30.34473 8.59412,-29.2587 31.69665,-34.49684 16.123578,-3.65577 15.856768,-3.44644 17.847848,-14.00316 1.92876,-10.22623 6.01724,-26.39384 8.0107,-31.67776 2.80399,-7.43231 8.10591,-19.44137 9.83389,-22.27416 28.61232,-46.90578 64.41738,-64.75615 78.1795,-38.97586 14.54964,27.25552 5.79161,79.8211 -19.67377,118.08176 -6.68242,10.04006 -6.78063,9.34854 3.14548,22.14891 12.74607,16.43691 13.00262,18.26178 5.29949,37.69711 -12.29171,31.01254 -14.33823,32.40532 -28.85297,19.63606 z"
         style="fill:#1f7acc;fill-opacity:0.996078"
         id="path1-5" /></g></g></svg>
