<?xml version="1.0" encoding="UTF-8" standalone="no"?>
<!-- Created with Inkscape (http://www.inkscape.org/) -->

<svg
   width="179mm"
   height="69.999992mm"
   viewBox="0 0 179 69.999992"
   version="1.1"
   id="svg1"
   xml:space="preserve"
   inkscape:export-filename="bitmap.svg"
   inkscape:export-xdpi="96"
   inkscape:export-ydpi="96"
   xmlns:inkscape="http://www.inkscape.org/namespaces/inkscape"
   xmlns:sodipodi="http://sodipodi.sourceforge.net/DTD/sodipodi-0.dtd"
   xmlns:xlink="http://www.w3.org/1999/xlink"
   xmlns="http://www.w3.org/2000/svg"
   xmlns:svg="http://www.w3.org/2000/svg"><sodipodi:namedview
     id="namedview1"
     pagecolor="#ffffff"
     bordercolor="#000000"
     borderopacity="0.25"
     inkscape:showpageshadow="2"
     inkscape:pageopacity="0.0"
     inkscape:pagecheckerboard="0"
     inkscape:deskcolor="#d1d1d1"
     inkscape:document-units="mm"><inkscape:page
       x="0"
       y="0"
       width="179"
       height="69.999992"
       id="page3"
       margin="0"
       bleed="0" /></sodipodi:namedview><defs
     id="defs1"><color-profile
       name="SMPTE-RP-431-2-2007-DCI-P3"
       xlink:href="file:///System/Library/ColorSync/Profiles/DCI(P3)%20RGB.icc"
       id="color-profile1" /></defs><g
     inkscape:label="Layer 1"
     inkscape:groupmode="layer"
     id="layer1"><g
       inkscape:label="Image"
       id="g1"
       transform="matrix(0.26458333,0,0,0.26458333,-15.67496,-67.934627)"><path
         d="m 398.24426,398.56164 c 1.99103,-2.89548 10.91145,-2.23067 14.15426,1.42115 7.44649,8.3857 19.6378,3.20718 22.33703,-8.08392 l 0.61771,-2.58393 -5.72737,2.92166 c -27.29367,13.92314 -47.2846,-32.17625 -20.72737,-47.79762 7.50949,-4.4172 19.84261,-4.05005 24.15872,0.71919 1.82168,2.01294 1.82478,2.01251 2.37402,-0.3299 0.49386,-2.10629 1.1831,-2.37584 6.7586,-2.6432 l 6.20866,-0.29772 -0.01,26.79772 c 5.0143,40.56283 -15.44468,49.64165 -36.54312,44.40645 0,0 -7.43344,-3.01055 -10.12854,-5.82131 -6.4276,-6.70342 -3.4726,-8.70857 -3.4726,-8.70857 z m 31.64058,-17.74675 c 10.38662,-8.17012 5.17661,-27.8321 -7.37492,-27.8321 -11.53045,0 -16.38308,18.69587 -7.0729,27.25 3.86586,3.55194 10.34064,3.8128 14.44782,0.5821 z M 243.62111,394.849 c -0.0114,-6.13953 -0.22259,-12.82454 -0.22259,-27.03288 v -25.83333 h 6.5 6.5 v 26.5 26.5 h -5.83334 c -3.20833,0 -3.2913,-0.12237 -6.94407,-0.13379 z m 19.77741,-26.36621 v -26.5 h 6.09362 c 5.07336,0 6.17408,0.3077 6.57422,1.83782 0.46378,1.77351 0.61706,1.7703 4.38046,-0.0917 7.93646,-3.92665 15.853,-3.22438 21.95341,1.90876 l 3.27468,3.45434 4.41044,-4.07137 c 6.73411,-6.21642 16.95564,-4.95307 23.46892,-0.0819 8.00209,5.98461 6.49903,15.36903 6.42497,31.72041 l -0.0807,17.82363 -4.41979,0.31579 c -9.74485,0.69626 -7.71147,1.22924 -7.8536,-13.94946 -0.21196,-22.63555 -0.0772,-24.08186 -2.8677,-25.96989 -5.25857,-3.55792 -8.1571,-2.84559 -11.84423,0.26048 -3.29367,2.77461 -4.4977,9.57255 -4.35053,18.64298 l 0.33585,20.7001 h -6.5 -6.5 l 0.13083,-20.63152 c 0.0344,-5.43365 0.60782,-11.81839 -0.92013,-16.14218 -1.52796,-4.3238 -5.11511,-6.58738 -13.27534,-3.78088 -4.55926,1.56804 -5.00451,12.04692 -4.76941,24.31711 0.17048,8.89741 0.78615,13.43703 -0.0503,15.39705 -0.83647,1.96001 -3.12508,1.34042 -7.69742,1.34042 h -5.91821 z m 91.4113,24.60905 c -17.95548,-10.94914 -5.61932,-31.10905 19.0361,-31.10905 5.6136,0 6.19246,-2.51398 1.62952,-7.07692 -4.40593,-4.40593 -12.28929,-2.90945 -13.67084,2.59511 -0.87372,3.48118 -13.40608,3.90156 -13.40608,0.44969 0,-10.5915 14.29113,-19.01131 27.31955,-16.09568 13.67759,3.06092 15.49353,6.8703 15.792,33.1278 l 0.22166,19.5 -3.82128,0.31959 c -5.62026,0.47004 -8.51193,-0.50863 -8.51193,-2.8808 0,-1.95103 -0.15453,-1.93254 -4.33786,0.51906 -5.55545,3.25571 -15.45754,3.57413 -20.25084,0.6512 z m 20.66562,-12.03213 c 2.12467,-2.12467 2.92308,-3.8855 2.92308,-6.44666 v -3.52359 l -4.75,0.51955 c -7.72084,0.8445 -11.27779,2.31668 -12.33859,5.10678 -2.67377,7.03255 8.15591,10.35352 14.16551,4.34392 z m 80.39216,12.7031 c -0.27777,-0.72385 -0.38445,-12.55798 -0.23706,-26.29806 l 0.26798,-24.98196 h 6.5 6.5 v 26 26 l -6.26295,0.29805 c -4.47731,0.21308 -6.40693,-0.0772 -6.76797,-1.01803 z m 20,0 c -0.27777,-0.72385 -0.38445,-12.55798 -0.23706,-26.29806 l 0.26798,-24.98196 h 6.5 c 6.2395,0 6.48687,0.0937 6.17234,2.33735 l -0.32766,2.33735 2.82766,-2.05144 c 16.91851,-12.27423 31.48206,6.48284 31.58006,10.50054 0.16443,6.74133 0.2476,19.3762 0.2476,19.3762 v 19.5 l -6.68769,0.29427 -6.68769,0.29427 0.0553,-28.75896 c 0.045,-23.42387 -18.74077,-9.37799 -19.6799,-7.1263 -0.25978,7.07689 -0.5,17.46456 -0.5,17.46456 l -0.5,17.83216 -6.26295,0.29805 c -4.47731,0.21308 -6.40693,-0.0772 -6.76797,-1.01803 z m 62.53092,0.54242 c -20.61491,-8.53589 -8.68567,-32.32244 16.2101,-32.32244 4.31777,0 4.7899,-0.22449 4.7899,-2.27749 0,-8.10041 -12.44387,-10.30543 -15.30975,-2.71285 -1.6309,4.32075 -13.69025,4.72439 -13.69025,0.45822 0,-17.70224 31.834,-22.4626 40.78428,-6.09876 1.45499,2.66014 1.7127,6.13792 1.71409,23.13088 l 0.002,20 h -5.47047 c -4.59225,0 -5.6419,-0.34386 -6.53833,-2.14191 l -1.06785,-2.14191 -2.92874,2.13344 c -2.96619,2.16071 -14.95286,3.43933 -18.49461,1.97282 z m 18.69103,-12.58491 c 2.53105,-2.53104 3.40116,-9.48016 1.25724,-10.04081 -6.16351,-1.61179 -15.94827,2.89315 -15.94827,7.34263 0,4.89068 10.55921,6.83 14.69103,2.69818 z m 31.94881,10.6637 c -5.75718,-3.9121 -6.63984,-7.08355 -6.63984,-23.85729 v -14.52031 l -3.89286,-0.62249 -3.89286,-0.62249 0.14286,-5.13933 0.14286,-5.13932 3.75,-0.31037 3.75,-0.31036 v -5.34783 -5.34783 l 6.19417,-2.09181 c 3.40679,-1.15049 6.55679,-2.0918 7,-2.0918 0.4432,0 0.80488,3.4875 0.80373,7.75 l -0.002,7.75 6.5021,-0.33533 6.5021,-0.33532 v 6.08532 6.08533 h -6.5 -6.5 v 13.37755 c 0,15.44292 0.3553,16.18065 7.40985,15.3855 4.76522,-0.53711 5.59015,0.68106 5.59015,8.25496 0,5.04395 -13.612,5.96872 -20.36016,1.38322 z m 24.36016,-23.85351 v -26.54772 h 6.5166 6.5166 l -0.2666,26.25 -0.2666,26.25 -6.25,0.29772 -6.25,0.29771 z m 33.02329,24.07437 c -28.945,-15.4818 -11.57322,-59.39877 19.8093,-50.07916 22.44793,6.66632 23.544,41.88089 1.58909,51.05424 -5.51911,2.30603 -16.1715,1.82063 -21.39839,-0.97508 z m 18.03918,-10.65553 c 2.94804,-1.57774 5.93753,-8.32777 5.93753,-13.40649 0,-20.34817 -22.90935,-21.80085 -24.75012,-1.5694 -1.06759,11.73355 9.3602,20.03466 18.81259,14.97589 z m 24.93753,-13.25474 v -26.38362 l 6,-0.21652 c 5.90922,-0.21324 6,-0.17555 6,2.49089 0,2.54359 0.10889,2.60886 1.79964,1.07875 4.45612,-4.03273 13.79915,-5.61243 19.84435,-3.35524 10.85391,4.05269 12.85362,9.29097 12.85498,33.67392 l 0.001,18.5 h -6.5 -6.5 l -0.57968,-18.5 c -0.31882,-10.175 -0.65632,-18.59497 -0.75,-18.71105 -4.93384,-6.1134 -13.62549,-5.60809 -17.41259,1.01233 -0.81061,1.41708 -1.43548,8.24216 -1.75773,19.19872 l -0.5,17 -6.25,0.29772 -6.25,0.29771 z M 245.10291,335.5574 c -2.62552,-1.9912 -3.33302,-7.96626 -1.30904,-11.05524 2.27441,-3.4712 9.69646,-3.65408 12.04794,-0.29686 5.07509,7.24569 -3.79284,16.61999 -10.7389,11.3521 z m 211.75015,-1.02916 c -4.17756,-4.17756 -2.80435,-10.32136 2.78163,-12.44514 6.01513,-2.28695 11.64392,2.61618 10.25628,8.93406 -1.3102,5.96531 -8.61619,7.9328 -13.03791,3.51108 z m 157.5531,-0.0373 c -4.92064,-5.23779 -1.76274,-12.59965 5.4929,-12.80532 2.79822,-0.0793 4.23108,0.48248 5.62684,2.20616 6.15084,7.59597 -4.44913,17.6997 -11.11974,10.59916 z"
         style="fill:#1f79cc;fill-opacity:1"
         id="path1-58"
         sodipodi:nodetypes="csscssssscccscsssscscccccscccsssscssscssssscccssscccccssssssscsssssscssssscccccsscscsscssccccssccsscsssssccsscsscsssssccccccccccssscccccccssssscscccccccssssscsscsssssscccssssccccsssssssssssss" /><path
         d="m 409.98121,496.53609 c -42.83524,-12.0797 -28.62508,-81.2556 15.82048,-77.1476 11.04206,1.02059 20.80666,6.95265 25.40762,12.83104 4.60096,5.87839 3.69802,13.30204 -5.57423,12.50898 l -6.9102,-0.59104 -2.36061,-3.19664 c -7.40888,-10.03282 -18.71332,-8.34083 -26.63367,-2.9111 -7.92035,5.42972 -10.02593,14.93302 -8.26008,27.77227 3.07329,22.34543 33.8923,25.6955 36.42364,4.32223 l 0.62011,-5.23582 h -9.13929 -9.13929 v -6.5 -6.5 h 17 c 19.66662,0 17.43402,-1.82602 17.11726,14 -0.50099,25.03052 -18.99463,37.80413 -44.37174,30.64768 z M 249.23569,457.88841 v -39 h 25.5 25.5 v 7.5 7.5 h -17 -17 v 8 8 h 14 14 v 7 7 h -14 -14 v 9 9 h 17 17 v 7.5 7.5 h -25.5 -25.5 z m 61,-0.0404 v -39.04045 l 8.21546,0.29045 8.21546,0.29044 3.03454,4.49918 c 1.66899,2.47454 8.76389,13.45005 15.76644,24.39001 l 12.7319,19.89084 0.2681,-24.39002 0.2681,-24.39001 7.75,-0.29206 7.75,-0.29207 v 39.081 39.081 l -8.67038,-0.28894 -8.67037,-0.28893 -3.82293,-6 c -2.10261,-3.3 -4.13305,-6.675 -4.51209,-7.5 -0.37905,-0.825 -1.46142,-2.625 -2.40527,-4 -0.94386,-1.375 -3.84425,-5.875 -6.44533,-10 -2.60107,-4.125 -6.58421,-10.30377 -8.85143,-13.7306 l -4.1222,-6.2306 -0.26778,23.9806 -0.26778,23.9806 h -7.98222 -7.98222 z m 157,0.0404 v -39 h 8 8 v 39 39 h -8 -8 z m 29,0 v -39 h 8.46024 8.46024 l 6.33118,9.75 c 8.46075,13.02952 20.00827,30.99724 21.24834,33.062 4.61217,7.67943 4.44292,8.32143 4.73196,-17.95007 l 0.26804,-24.36193 7.75,-0.29206 7.75,-0.29207 v 39.04207 39.04206 h -8.46526 -8.46526 l -4.38609,-6.75 c -7.95391,-12.24074 -15.27246,-23.65617 -19.25722,-30.03729 -2.1594,-3.458 -4.93867,-7.70793 -6.17617,-9.44428 l -2.25,-3.15699 v 24.69428 24.69428 h -8 -8 z m 77,-39.03434 50.5,0.53434 v 14 l -33.5,0.54836 v 15.95164 h 28.09138 c -0.29473,4.64175 -0.32291,9.2887 -0.37274,13.93728 l -27.71864,0.11916 v 17.94356 c 11.14158,-0.22185 22.28342,-0.13695 33.42545,-0.12829 0.0826,5.01442 0.10196,9.82289 0.0745,14.62829 l -50.5,0.53434 z"
         style="fill:#e6e9ec;fill-opacity:1"
         id="path1-4"
         sodipodi:nodetypes="sssscsssscccccssscccccccccccccccccccccccccccccsscccccccccssssscccccccccccccccccccssscccccccsssccccccccccccccccccc" /><path
         d="m 100.61486,517.77395 c -13.553114,-28.03923 1.29782,-56.97151 25.75712,-50.17949 18.1646,5.04407 14.20371,23.98412 -9.78017,46.76648 -9.31148,8.84499 -12.97323,9.62722 -15.97695,3.41301 z"
         style="fill:#e5e8eb;fill-opacity:0.992157"
         id="path1-7" /><path
         d="m 173.3741,470.67341 c -4.6038,-4.05017 -9.46148,-8.55017 -10.79486,-10 -3.21626,-3.49718 -5.01464,-3.32599 -9.07568,0.86394 -4.14337,4.27487 -5.47014,4.31065 -16.0961,0.43407 -4.62214,-1.68626 -10.33718,-3.73616 -12.70008,-4.55534 -14.37934,-4.98504 -16.3235,-6.81812 -17.12525,-16.14691 -0.68718,-7.9956 -0.32062,-7.90009 -16.578558,-4.31984 -31.35617,6.90513 -32.14247,6.14278 -23.11629,-22.41198 9.59199,-30.34473 8.59412,-29.2587 31.69665,-34.49684 16.123578,-3.65577 15.856768,-3.44644 17.847848,-14.00316 1.92876,-10.22623 6.01724,-26.39384 8.0107,-31.67776 2.80399,-7.43231 8.10591,-19.44137 9.83389,-22.27416 28.61232,-46.90578 64.41738,-64.75615 78.1795,-38.97586 14.54964,27.25552 5.79161,79.8211 -19.67377,118.08176 -6.68242,10.04006 -6.78063,9.34854 3.14548,22.14891 12.74607,16.43691 13.00262,18.26178 5.29949,37.69711 -12.29171,31.01254 -14.33823,32.40532 -28.85297,19.63606 z"
         style="fill:#1f7acc;fill-opacity:0.996078"
         id="path1-5" /></g></g></svg>
